GIL03_xslow1_ik
nRows=3
nColumns=375

# SIMM Motion File Header:
name GIL03_xslow1_ik
datacolumns 375
datarows 3
otherdata 1
range 1.27500000 1.29167000
endheader
time	pelvis_tx	pelvis_ty	pelvis_tz	pelvis_tilt	pelvis_list	pelvis_rotation	hip_flexion_r	hip_adduction_r	hip_rotation_r	knee_angle_r	ankle_angle_r	hip_flexion_l	hip_adduction_l	hip_rotation_l	knee_angle_l	ankle_angle_l	lumbar_extension	lumbar_bending	lumbar_rotation	subtalar_angle_r	mtp_angle_r	subtalar_angle_l	mtp_angle_l	asis_r_px	asis_r_py	asis_r_pz	asis_l_px	asis_l_py	asis_l_pz	midasis_px	midasis_py	midasis_pz	psis_r_px	psis_r_py	psis_r_pz	psis_l_px	psis_l_py	psis_l_pz	hip_r_px	hip_r_py	hip_r_pz	hip_l_px	hip_l_py	hip_l_pz	midhip_px	midhip_py	midhip_pz	epicondLat_r_px	epicondLat_r_py	epicondLat_r_pz	epicondMed_r_px	epicondMed_r_py	epicondMed_r_pz	thighwand_r_px	thighwand_r_py	thighwand_r_pz	upperleg1_r_px	upperleg1_r_py	upperleg1_r_pz	upperleg2_r_px	upperleg2_r_py	upperleg2_r_pz	malleolusLat_r_px	malleolusLat_r_py	malleolusLat_r_pz	malleolusMedv_r_px	malleolusMedv_r_py	malleolusMedv_r_pz	shankwand_r_px	shankwand_r_py	shankwand_r_pz	lowerleg1_r_px	lowerleg1_r_py	lowerleg1_r_pz	knee_r_px	knee_r_py	knee_r_pz	ankle_r_px	ankle_r_py	ankle_r_pz	toe_r_px	toe_r_py	toe_r_pz	epicondLat_l_px	epicondLat_l_py	epicondLat_l_pz	epicondMed_l_px	epicondMed_l_py	epicondMed_l_pz	thighwand_l_px	thighwand_l_py	thighwand_l_pz	upperleg1_l_px	upperleg1_l_py	upperleg1_l_pz	upperleg2_l_px	upperleg2_l_py	upperleg2_l_pz	malleolusLat_l_px	malleolusLat_l_py	malleolusLat_l_pz	malleolusMedv_l_px	malleolusMedv_l_py	malleolusMedv_l_pz	shankwand_l_px	shankwand_l_py	shankwand_l_pz	lowerleg1_l_px	lowerleg1_l_py	lowerleg1_l_pz	knee_l_px	knee_l_py	knee_l_pz	ankle_l_px	ankle_l_py	ankle_l_pz	toe_l_px	toe_l_py	toe_l_pz	subclavicle_r_px	subclavicle_r_py	subclavicle_r_pz	subclavicle_l_px	subclavicle_l_py	subclavicle_l_pz	neck_px	neck_py	neck_pz	sternalnotch_px	sternalnotch_py	sternalnotch_pz	xyphoidprocess_px	xyphoidprocess_py	xyphoidprocess_pz	midhip_tx	midhip_ty	midhip_tz	hip_r_tx	hip_r_ty	hip_r_tz	hip_l_tx	hip_l_ty	hip_l_tz	knee_r_tx	knee_r_ty	knee_r_tz	knee_l_tx	knee_l_ty	knee_l_tz	ankle_r_tx	ankle_r_ty	ankle_r_tz	ankle_l_tx	ankle_l_ty	ankle_l_tz	midasis_tx	midasis_ty	midasis_tz	asis_r_tx	asis_r_ty	asis_r_tz	asis_l_tx	asis_l_ty	asis_l_tz	psis_r_tx	psis_r_ty	psis_r_tz	psis_l_tx	psis_l_ty	psis_l_tz	epicondLat_r_tx	epicondLat_r_ty	epicondLat_r_tz	epicondLat_l_tx	epicondLat_l_ty	epicondLat_l_tz	epicondMed_r_tx	epicondMed_r_ty	epicondMed_r_tz	epicondMed_l_tx	epicondMed_l_ty	epicondMed_l_tz	malleolusLat_r_tx	malleolusLat_r_ty	malleolusLat_r_tz	malleolusLat_l_tx	malleolusLat_l_ty	malleolusLat_l_tz	malleolusMedv_r_tx	malleolusMedv_r_ty	malleolusMedv_r_tz	malleolusMedv_l_tx	malleolusMedv_l_ty	malleolusMedv_l_tz	neck_tx	neck_ty	neck_tz	subclavicle_r_tx	subclavicle_r_ty	subclavicle_r_tz	subclavicle_l_tx	subclavicle_l_ty	subclavicle_l_tz	sternalnotch_tx	sternalnotch_ty	sternalnotch_tz	xyphoidprocess_tx	xyphoidprocess_ty	xyphoidprocess_tz	thighwand_r_tx	thighwand_r_ty	thighwand_r_tz	thighwand_l_tx	thighwand_l_ty	thighwand_l_tz	upperleg1_r_tx	upperleg1_r_ty	upperleg1_r_tz	upperleg1_l_tx	upperleg1_l_ty	upperleg1_l_tz	upperleg2_r_tx	upperleg2_r_ty	upperleg2_r_tz	upperleg2_l_tx	upperleg2_l_ty	upperleg2_l_tz	shankwand_r_tx	shankwand_r_ty	shankwand_r_tz	shankwand_l_tx	shankwand_l_ty	shankwand_l_tz	lowerleg1_r_tx	lowerleg1_r_ty	lowerleg1_r_tz	lowerleg1_l_tx	lowerleg1_l_ty	lowerleg1_l_tz	toe_r_tx	toe_r_ty	toe_r_tz	toe_l_tx	toe_l_ty	toe_l_tz	ground_force_vx	ground_force_vy	ground_force_vz	ground_force_px	ground_force_py	ground_force_pz	ground_force_vx	ground_force_vy	ground_force_vz	ground_force_px	ground_force_py	ground_force_pz	ground_torque_x	ground_torque_y	ground_torque_z	ground_torque_x	ground_torque_y	ground_torque_z	ground_marker_px	ground_marker_py	ground_marker_pz	ground_marker_px	ground_marker_py	ground_marker_pz	ground_marker_px	ground_marker_py	ground_marker_pz	ground_marker_px	ground_marker_py	ground_marker_pz	ground_marker_px	ground_marker_py	ground_marker_pz	ground_marker_px	ground_marker_py	ground_marker_pz	ground_marker_px	ground_marker_py	ground_marker_pz	ground_marker_px	ground_marker_py	ground_marker_pz	ground_marker_px	ground_marker_py	ground_marker_pz	ground_marker_px	ground_marker_py	ground_marker_pz	ground_marker_px	ground_marker_py	ground_marker_pz	ground_marker_px	ground_marker_py	ground_marker_pz	ground_marker_px	ground_marker_py	ground_marker_pz	ground_marker_px	ground_marker_py	ground_marker_pz	ground_marker_px	ground_marker_py	ground_marker_pz	ground_marker_px	ground_marker_py	ground_marker_pz	ground_marker_px	ground_marker_py	ground_marker_pz	ground_marker_px	ground_marker_py	ground_marker_pz	ground_marker_px	ground_marker_py	ground_marker_pz	ground_marker_px	ground_marker_py	ground_marker_pz	ground_marker_px	ground_marker_py	ground_marker_pz	ground_marker_px	ground_marker_py	ground_marker_pz	ground_marker_px	ground_marker_py	ground_marker_pz	ground_marker_px	ground_marker_py	ground_marker_pz	ground_marker_px	ground_marker_py	ground_marker_pz	ground_marker_px	ground_marker_py	ground_marker_pz	ground_marker_px	ground_marker_py	ground_marker_pz	ground_marker_px	ground_marker_py	ground_marker_pz	ground_marker_px	ground_marker_py	ground_marker_pz	ground_marker_px	ground_marker_py	ground_marker_pz	ground_marker_px	ground_marker_py	ground_marker_pz	ground_marker_px	ground_marker_py	ground_marker_pz	ground_marker_px	ground_marker_py	ground_marker_pz	ground_marker_px	ground_marker_py	ground_marker_pz	ground_marker_px	ground_marker_py	ground_marker_pz	ground_marker_px	ground_marker_py	ground_marker_pz	ground_marker_px	ground_marker_py	ground_marker_pz
      1.27500000	      2.04545282	      0.89527424	     -0.23496091	      1.13930772	     -0.70365682	      4.37461303	     -1.14488888	      3.26437476	      6.79957810	    -10.61842197	     10.14074081	     10.19628712	     -6.79288983	     -4.83863682	    -39.21454234	     12.89077488	     -9.37329509	      2.37499095	      0.60192338	      0.00000000	      0.00000000	      0.00000000	      0.00000000	      2.10123510	      0.90086917	     -0.14621336	      2.06824254	      0.89168811	     -0.34499359	      2.05645244	      0.89548265	     -0.23580246	      1.93876050	      0.94687875	     -0.19883066	      1.92947171	      0.94509358	     -0.25291616	      1.99594317	      0.84304649	     -0.16445963	      1.98593785	      0.84123554	     -0.29568290	      1.99094051	      0.84214101	     -0.23007126	      2.03353344	      0.44989684	     -0.12556817	      1.98639728	      0.44801708	     -0.22442679	      2.15180416	      0.61624445	     -0.21475457	      2.09412255	      0.66809944	     -0.14975234	      2.08200478	      0.58294287	     -0.14763466	      1.91016706	      0.06107669	     -0.14205300	      1.93304628	      0.07198637	     -0.21102254	      1.94537130	      0.17732999	     -0.06873523	      1.94398889	      0.18516581	     -0.11032522	      1.99154126	      0.46866655	     -0.18002496	      1.91767848	      0.07648692	     -0.18266523	      2.03470368	      0.03637231	     -0.15151756	      2.06279410	      0.47327189	     -0.40397741	      2.06979250	      0.44873175	     -0.29768705	      2.16902092	      0.65028584	     -0.33724848	      2.08240899	      0.68440187	     -0.37675421	      2.09764513	      0.59774850	     -0.38112709	      1.85088077	      0.11248552	     -0.37728265	      1.89170439	      0.10482892	     -0.32350010	      1.85433640	      0.24172846	     -0.42425124	      1.88100376	      0.23486221	     -0.39087930	      2.05806118	      0.47244832	     -0.34115767	      1.87178087	      0.11952578	     -0.33757005	      1.95887523	      0.05491337	     -0.41689939	      2.05070600	      1.28686804	     -0.17076849	      2.04452321	      1.28709192	     -0.27980855	      1.94347069	      1.33554878	     -0.21492501	      2.03158763	      1.29521852	     -0.22958824	      2.11694972	      1.14234990	     -0.23349413	      1.99610000	      0.85140300	     -0.23478800	      2.00343600	      0.83070400	     -0.17054000	      1.98466100	      0.82989500	     -0.28649900	      1.99851800	      0.45658700	     -0.19068000	      2.05281600	      0.46902500	     -0.33954200	      1.92152000	      0.06438200	     -0.18987300	      1.86777000	      0.11171900	     -0.32750900	      2.05481700	      0.90953800	     -0.23287600	      2.06243600	      0.90920200	     -0.13270400	      2.04719800	      0.90987400	     -0.33304700	      1.90047500	      0.94027700	     -0.19424700	      1.89417100	      0.94072800	     -0.24793400	      2.01823000	      0.45356800	     -0.13942300	      2.05668000	      0.47764400	     -0.39321700	      1.97361000	      0.45430100	     -0.23168700	      2.05284500	      0.44907200	     -0.29584300	      1.92375100	      0.06402300	     -0.15143900	      1.86310300	      0.11285000	     -0.36570800	      1.93013400	      0.07837000	     -0.22292400	      1.89270900	      0.12034800	     -0.30630800	      1.94836800	      1.34969100	     -0.21428900	      2.04972200	      1.27652200	     -0.17229800	      2.04345600	      1.27623600	     -0.27970200	      2.03149200	      1.28748500	     -0.23028900	      2.08437800	      1.12015800	     -0.23192500	      2.13272000	      0.62688500	     -0.20998200	      2.15869400	      0.65064400	     -0.30957000	      2.07168900	      0.67366900	     -0.14466600	      2.08045500	      0.68732900	     -0.36075100	      2.06235100	      0.58942700	     -0.14683000	      2.09526500	      0.60098200	     -0.36633100	      1.96380900	      0.18003100	     -0.08340800	      1.87412900	      0.24230100	     -0.42591700	      1.95537000	      0.18894000	     -0.12375400	      1.89400300	      0.23992400	     -0.38761300	      2.03909000	      0.03904700	     -0.19768500	      1.97188400	      0.05806600	     -0.36123600	    -18.04309596	    412.41861158	     -7.67092538	      2.03333105	      0.00000000	     -0.20787614	      0.00000000	      0.00000000	      0.00000000	      1.69144287	      0.00000000	     -0.29953256	      0.00000000	     -0.33125217	      0.00000000	      0.00000000	      0.00000000	      0.00000000	      1.99610019	      0.85140300	     -0.23478761	      2.00343633	      0.83070445	     -0.17054044	      1.98466074	      0.82989514	     -0.28649926	      1.99851787	      0.45658687	     -0.19068006	      2.05281568	      0.46902460	     -0.33954182	      1.92151952	      0.06438244	     -0.18987289	      1.86777043	      0.11171915	     -0.32750869	      2.05481696	      0.90953803	     -0.23287560	      2.06243563	      0.90920180	     -0.13270393	      2.04719830	      0.90987432	     -0.33304727	      1.90047491	      0.94027746	     -0.19424716	      1.89417064	      0.94072759	     -0.24793443	      2.01823020	      0.45356840	     -0.13942279	      2.05668044	      0.47764394	     -0.39321694	      1.97361016	      0.45430064	     -0.23168661	      2.05284548	      0.44907215	     -0.29584330	      1.92375147	      0.06402336	     -0.15143931	      1.86310267	      0.11285010	     -0.36570793	      1.93013406	      0.07837009	     -0.22292371	      1.89270937	      0.12034754	     -0.30630848	      1.94836771	      1.34969056	     -0.21428862	      2.04972243	      1.27652216	     -0.17229767	      2.04345608	      1.27623558	     -0.27970156	      2.03149247	      1.28748536	     -0.23028918	      2.08437848	      1.12015772	     -0.23192549	      2.13272047	      0.62688518	     -0.20998202	      2.15869379	      0.65064359	     -0.30956954	      2.07168913	      0.67366922	     -0.14466617	      2.08045459	      0.68732947	     -0.36075112	      2.06235123	      0.58942741	     -0.14682962	      2.09526539	      0.60098237	     -0.36633149	      1.96380854	      0.18003088	     -0.08340791	      1.87412906	      0.24230072	     -0.42591658	      1.95536995	      0.18893991	     -0.12375388	      1.89400315	      0.23992407	     -0.38761261	      2.03909016	      0.03904651	     -0.19768471	      1.97188389	      0.05806591	     -0.36123604
      1.28333000	      2.04897421	      0.89520511	     -0.23493024	      1.14380696	     -0.66888430	      4.35794511	     -1.40471742	      3.21843996	      6.64952960	    -10.60052293	     10.24347117	     10.88550731	     -6.65026947	     -4.71739242	    -38.73844546	     12.88085605	     -9.43488501	      2.28750052	      0.70661994	      0.00000000	      0.00000000	      0.00000000	      0.00000000	      2.10473129	      0.90075024	     -0.14616373	      2.07179489	      0.89168825	     -0.34495873	      2.05997404	      0.89541494	     -0.23576860	      1.94226759	      0.94677874	     -0.19879813	      1.93299402	      0.94502594	     -0.25288730	      1.99944920	      0.84293012	     -0.16447477	      1.98948060	      0.84119874	     -0.29570191	      1.99446490	      0.84206443	     -0.23008834	      2.03515837	      0.44963731	     -0.12525955	      1.98830631	      0.44791436	     -0.22425598	      2.15443780	      0.61540275	     -0.21418615	      2.09679801	      0.66755223	     -0.14938272	      2.08429170	      0.58245212	     -0.14725475	      1.91021722	      0.06133958	     -0.14192294	      1.93334636	      0.07211936	     -0.21082952	      1.94569004	      0.17748082	     -0.06855704	      1.94446380	      0.18530179	     -0.11015473	      1.99340868	      0.46856663	     -0.17984964	      1.91791348	      0.07669817	     -0.18252012	      2.03473704	      0.03631193	     -0.15096910	      2.07104256	      0.47413284	     -0.40360050	      2.07805009	      0.44972997	     -0.29727915	      2.17495552	      0.65244268	     -0.33667874	      2.08804626	      0.68549641	     -0.37643378	      2.10433409	      0.59903027	     -0.38072117	      1.86631998	      0.10932897	     -0.37794678	      1.90710823	      0.10244140	     -0.32403358	      1.86732761	      0.23866363	     -0.42477905	      1.89401540	      0.23230192	     -0.39132356	      2.06607864	      0.47335726	     -0.34077367	      1.88694000	      0.11674817	     -0.33815682	      1.97557618	      0.05396702	     -0.41724847	      2.05460164	      1.28675790	     -0.17110380	      2.04822983	      1.28690984	     -0.28013310	      1.94733116	      1.33549838	     -0.21510874	      2.03538831	      1.29508296	     -0.22989620	      2.12061389	      1.14213921	     -0.23384173	      1.99954300	      0.85134100	     -0.23491400	      2.00689300	      0.83059200	     -0.17075600	      1.98816100	      0.82988200	     -0.28672300	      2.00033100	      0.45644300	     -0.19074200	      2.06074600	      0.46983900	     -0.33960400	      1.92170800	      0.06463800	     -0.18986400	      1.88314400	      0.10887800	     -0.32752800	      2.05829500	      0.90948100	     -0.23300500	      2.06587500	      0.90905900	     -0.13284200	      2.05071400	      0.90990300	     -0.33316700	      1.90386400	      0.94020700	     -0.19451000	      1.89752700	      0.94069100	     -0.24818600	      2.01987900	      0.45335900	     -0.13942600	      2.06467000	      0.47851200	     -0.39326600	      1.97680900	      0.45320500	     -0.22959600	      2.05993200	      0.45009900	     -0.29530200	      1.92387900	      0.06428800	     -0.15142700	      1.87839700	      0.10993600	     -0.36571900	      1.93020200	      0.07849200	     -0.22292500	      1.90781100	      0.11797000	     -0.30638300	      1.95231400	      1.34969400	     -0.21451600	      2.05355200	      1.27640400	     -0.17254400	      2.04718300	      1.27611600	     -0.27997600	      2.03526600	      1.28735800	     -0.23054000	      2.08790500	      1.11997900	     -0.23220600	      2.13541200	      0.62619500	     -0.20973200	      2.16422000	      0.65262900	     -0.30930400	      2.07437800	      0.67333500	     -0.14466600	      2.08575800	      0.68844200	     -0.36085300	      2.06534800	      0.58958800	     -0.14608100	      2.10130800	      0.60207300	     -0.36614300	      1.96429100	      0.18007000	     -0.08341900	      1.88667300	      0.23956000	     -0.42580900	      1.95588400	      0.18897900	     -0.12382600	      1.90677800	      0.23750500	     -0.38760200	      2.03915300	      0.03903100	     -0.19766500	      1.98823200	      0.05739600	     -0.36155600	    -18.01533376	    412.71016720	     -7.78745916	      2.03575964	      0.00000000	     -0.20835342	      0.00000000	      0.00000000	      0.00000000	      1.69240210	      0.00000000	     -0.29936749	      0.00000000	     -0.29170590	      0.00000000	      0.00000000	      0.00000000	      0.00000000	      1.99954271	      0.85134083	     -0.23491450	      2.00689316	      0.83059239	     -0.17075635	      1.98816097	      0.82988209	     -0.28672284	      2.00033116	      0.45644251	     -0.19074242	      2.06074572	      0.46983883	     -0.33960354	      1.92170823	      0.06463781	     -0.18986379	      1.88314414	      0.10887826	     -0.32752767	      2.05829477	      0.90948105	     -0.23300466	      2.06587505	      0.90905911	     -0.13284230	      2.05071425	      0.90990299	     -0.33316702	      1.90386367	      0.94020742	     -0.19451007	      1.89752686	      0.94069105	     -0.24818638	      2.01987863	      0.45335850	     -0.13942589	      2.06466985	      0.47851157	     -0.39326575	      1.97680879	      0.45320544	     -0.22959565	      2.05993176	      0.45009872	     -0.29530171	      1.92387903	      0.06428839	     -0.15142661	      1.87839746	      0.10993605	     -0.36571929	      1.93020201	      0.07849186	     -0.22292522	      1.90781105	      0.11797009	     -0.30638289	      1.95231426	      1.34969425	     -0.21451603	      2.05355167	      1.27640378	     -0.17254430	      2.04718304	      1.27611637	     -0.27997616	      2.03526568	      1.28735793	     -0.23054002	      2.08790469	      1.11997890	     -0.23220560	      2.13541174	      0.62619537	     -0.20973209	      2.16422033	      0.65262896	     -0.30930424	      2.07437849	      0.67333466	     -0.14466631	      2.08575797	      0.68844217	     -0.36085263	      2.06534839	      0.58958775	     -0.14608076	      2.10130835	      0.60207283	     -0.36614257	      1.96429145	      0.18007024	     -0.08341920	      1.88667262	      0.23956019	     -0.42580944	      1.95588362	      0.18897878	     -0.12382644	      1.90677834	      0.23750511	     -0.38760218	      2.03915334	      0.03903089	     -0.19766514	      1.98823225	      0.05739643	     -0.36155576
      1.29167000	      2.05246410	      0.89510295	     -0.23488223	      1.14466577	     -0.63451051	      4.32076773	     -1.65504588	      3.17288781	      6.51442269	    -10.59055679	     10.35257556	     11.55222508	     -6.49929686	     -4.58804221	    -38.19103514	     12.81508281	     -9.49282607	      2.20116856	      0.80722125	      0.00000000	      0.00000000	      0.00000000	      0.00000000	      2.10816453	      0.90059492	     -0.14607686	      2.07535492	      0.89165403	     -0.34489831	      2.06346446	      0.89531354	     -0.23571346	      1.94573333	      0.94665206	     -0.19878648	      1.93649425	      0.94493220	     -0.25288261	      2.00289543	      0.84278370	     -0.16449036	      1.99301042	      0.84113251	     -0.29572486	      1.99795293	      0.84195811	     -0.23010761	      2.03676443	      0.44935981	     -0.12495880	      1.99020659	      0.44778811	     -0.22409646	      2.15703774	      0.61455389	     -0.21360953	      2.09942979	      0.66699002	     -0.14900940	      2.08654493	      0.58194657	     -0.14687454	      1.91024459	      0.06158824	     -0.14181073	      1.93362883	      0.07223567	     -0.21065176	      1.94598144	      0.17761670	     -0.06839454	      1.94491493	      0.18542159	     -0.10999965	      1.99526240	      0.46844276	     -0.17968534	      1.91812909	      0.07689370	     -0.18239186	      2.03474936	      0.03624756	     -0.15042526	      2.07915975	      0.47496964	     -0.40312540	      2.08610365	      0.45071299	     -0.29676642	      2.18078685	      0.65450889	     -0.33598067	      2.09363086	      0.68653187	     -0.37603804	      2.11093091	      0.60025727	     -0.38021770	      1.88197125	      0.10617129	     -0.37865017	      1.92267821	      0.10007802	     -0.32458013	      1.88045946	      0.23555138	     -0.42534316	      1.90714018	      0.22971184	     -0.39178696	      2.07391634	      0.47425785	     -0.34029237	      1.90227174	      0.11397552	     -0.33876967	      1.99245640	      0.05302389	     -0.41754125	      2.05844228	      1.28661790	     -0.17140871	      2.05192816	      1.28669986	     -0.28042967	      1.95115581	      1.33541907	     -0.21530727	      2.03915923	      1.29491863	     -0.23018172	      2.12424973	      1.14189983	     -0.23413263	      2.00294900	      0.85121100	     -0.23501200	      2.01031400	      0.83048400	     -0.17098600	      1.99166400	      0.82986500	     -0.28696600	      2.00214500	      0.45631600	     -0.19081200	      2.06853100	      0.47067100	     -0.33955600	      1.92187600	      0.06488300	     -0.18985300	      1.89867300	      0.10604100	     -0.32761900	      2.06176100	      0.90942000	     -0.23313600	      2.06927000	      0.90891900	     -0.13297900	      2.05425200	      0.90992000	     -0.33329300	      1.90724300	      0.94014600	     -0.19483500	      1.90094400	      0.94064100	     -0.24851900	      2.02152300	      0.45317000	     -0.13943500	      2.07254600	      0.47938500	     -0.39320500	      1.97900200	      0.45323200	     -0.23003800	      2.06748300	      0.45085000	     -0.29555500	      1.92399000	      0.06454300	     -0.15141300	      1.89385600	      0.10703500	     -0.36580400	      1.93023100	      0.07861300	     -0.22292600	      1.92319900	      0.11565000	     -0.30649500	      1.95618500	      1.34967000	     -0.21475700	      2.05735400	      1.27627900	     -0.17279000	      2.05086600	      1.27596100	     -0.28025900	      2.03902100	      1.28721800	     -0.23081900	      2.09143700	      1.11978800	     -0.23245400	      2.13810200	      0.62551900	     -0.20948600	      2.16963500	      0.65455200	     -0.30892600	      2.07704700	      0.67298200	     -0.14463400	      2.09100600	      0.68948800	     -0.36078000	      2.06771900	      0.58923900	     -0.14612600	      2.10750400	      0.60336600	     -0.36607700	      1.96477300	      0.18012000	     -0.08342800	      1.89929900	      0.23681400	     -0.42573400	      1.95644400	      0.18911400	     -0.12375800	      1.91959200	      0.23508500	     -0.38762700	      2.03921900	      0.03901300	     -0.19764100	      2.00470400	      0.05672500	     -0.36182500	    -17.99497227	    412.64649943	     -7.83079221	      2.03806909	      0.00000000	     -0.20881607	      0.00000000	      0.00000000	      0.00000000	      1.69341064	      0.00000000	     -0.29919696	      0.00000000	     -0.24340897	      0.00000000	      0.00000000	      0.00000000	      0.00000000	      2.00294948	      0.85121059	     -0.23501220	      2.01031423	      0.83048385	     -0.17098558	      1.99166369	      0.82986474	     -0.28696576	      2.00214458	      0.45631585	     -0.19081166	      2.06853104	      0.47067139	     -0.33955580	      1.92187595	      0.06488279	     -0.18985322	      1.89867282	      0.10604124	     -0.32761911	      2.06176138	      0.90941989	     -0.23313583	      2.06927037	      0.90891933	     -0.13297901	      2.05425239	      0.90992039	     -0.33329266	      1.90724313	      0.94014627	     -0.19483483	      1.90094411	      0.94064111	     -0.24851938	      2.02152324	      0.45317045	     -0.13943490	      2.07254577	      0.47938532	     -0.39320466	      1.97900200	      0.45323187	     -0.23003806	      2.06748343	      0.45084983	     -0.29555482	      1.92398965	      0.06454347	     -0.15141279	      1.89385593	      0.10703509	     -0.36580369	      1.93023133	      0.07861274	     -0.22292641	      1.92319918	      0.11564992	     -0.30649516	      1.95618534	      1.34966958	     -0.21475731	      2.05735421	      1.27627945	     -0.17279030	      2.05086637	      1.27596140	     -0.28025949	      2.03902149	      1.28721809	     -0.23081894	      2.09143734	      1.11978817	     -0.23245424	      2.13810182	      0.62551850	     -0.20948641	      2.16963458	      0.65455210	     -0.30892566	      2.07704663	      0.67298186	     -0.14463438	      2.09100628	      0.68948787	     -0.36077979	      2.06771851	      0.58923888	     -0.14612605	      2.10750365	      0.60336626	     -0.36607686	      1.96477330	      0.18012047	     -0.08342791	      1.89929926	      0.23681414	     -0.42573407	      1.95644355	      0.18911418	     -0.12375824	      1.91959155	      0.23508526	     -0.38762680	      2.03921914	      0.03901312	     -0.19764097	      2.00470376	      0.05672479	     -0.36182463
